<svg xmlns="http://www.w3.org/2000/svg" width="200" height="45" viewBox="0 0 200 45" fill="none"><g clip-path="url(#clip0_4036_11)"><path fill-rule="evenodd" clip-rule="evenodd" d="M199.531 18.3173C199.505 18.2408 199.48 18.1745 199.459 18.1286C198.847 16.3994 198.102 15.3588 196.848 14.1142C196.44 13.7112 195.373 12.9461 194.833 12.6452L193.384 12.0126C193.384 12.0126 193.348 12.0024 193.333 11.9973C193.313 11.9922 193.297 11.9871 193.282 11.982C193.262 11.9769 193.246 11.9718 193.226 11.9667C192.92 11.8647 192.548 11.778 192.303 11.7066C191.298 11.4209 189.002 11.4873 187.967 11.6709L186.442 12.13C186.442 12.13 186.411 12.1402 186.396 12.1504L185.366 12.6196C183.845 13.446 182.749 14.5529 181.729 15.9454L180.892 17.4757C180.367 18.8172 180.137 19.868 180.137 21.4237C180.137 21.9287 180.101 22.3929 180.198 22.8418C180.27 23.1478 180.244 23.4743 180.428 24.066L180.765 25.1015C180.821 25.2443 180.877 25.3514 180.943 25.5095C181.183 26.091 181.417 26.4481 181.739 26.9582C182.32 27.8917 183.708 29.274 184.549 29.7994L187.697 31.1766C187.998 31.2276 187.926 31.2582 188.161 31.2939C188.395 31.3296 188.482 31.2939 188.702 31.35C189.446 31.5439 191.594 31.4011 192.303 31.2123C193.149 30.9879 193.491 30.9777 194.43 30.5084C194.889 30.2789 195.761 29.7892 196.082 29.4882L197.123 28.5497C197.256 28.417 197.348 28.3201 197.434 28.2028C197.536 28.0651 197.597 27.9121 197.786 27.8304L197.801 30.7685C198.271 30.8502 199.459 30.8145 199.995 30.794L200.005 21.2962C200.005 20.4903 199.786 19.0773 199.536 18.3275L199.531 18.3173ZM197.756 21.5309C197.725 21.893 197.689 22.1532 197.679 22.5408L197.388 24.3363C196.996 25.8615 196.144 27.3663 195.093 28.4783L194.282 29.2434C194.139 29.3811 194.144 29.376 193.991 29.4729C193.792 29.6004 193.583 29.7586 193.359 29.8912C193.313 29.9218 193.206 29.9779 193.19 29.9881L191.9 30.5186L190.512 30.7992C189.518 30.8706 188.212 30.5951 187.396 30.2228C186.182 29.6668 185.508 29.0393 184.677 28.0804C183.973 27.2642 184.121 27.3408 183.606 26.5195C183.335 26.0961 183.009 25.3004 182.856 24.8209C182.825 24.7189 182.83 24.7138 182.805 24.6118C182.774 24.4792 182.749 24.3772 182.703 24.1935C182.631 23.9334 182.626 24.0507 182.591 23.7855C182.555 23.5253 182.591 23.5712 182.519 23.3315L182.346 21.3472C182.341 20.4087 182.397 20.8218 182.448 20.4189C182.509 19.919 182.438 19.7558 182.621 19.0059C182.825 18.1796 183.085 17.3839 183.473 16.634L183.953 15.7975C184.345 15.1752 184.973 14.4713 185.544 13.9102C185.728 13.7316 185.906 13.6092 186.136 13.4409C186.784 12.9665 187.906 12.3952 188.63 12.2728C188.89 12.2269 188.834 12.3034 189.094 12.1912C189.431 12.0381 190.716 12.1453 191.073 12.2269C191.456 12.3136 191.772 12.3034 192.379 12.5482C193.348 12.941 194.506 13.6806 195.175 14.4917C195.481 14.8691 195.838 15.2925 196.113 15.7261C196.95 17.0421 197.674 18.7713 197.699 20.4954C197.699 20.7861 197.781 21.3829 197.771 21.5309H197.756Z" fill="#00A4A4"></path><path fill-rule="evenodd" clip-rule="evenodd" d="M87.3473 16.0423C85.9955 14.0938 84.3123 12.7012 82.022 11.9922C82.0016 11.9871 81.9863 11.982 81.971 11.9769L80.6855 11.676C80.4968 11.63 78.8645 11.4719 78.4514 11.5739C78.0382 11.676 77.7474 11.5892 77.3751 11.6709C77.1302 11.7219 77.268 11.7372 76.9058 11.7831C75.6969 11.931 74.2074 12.7216 73.2128 13.4205L72.5548 13.9356C72.3201 14.1397 72.1314 14.3284 71.912 14.5528C70.8664 15.6036 70.1165 16.8431 69.6218 18.2459C69.5197 18.5366 69.1933 19.8526 69.1882 20.1638C69.1627 21.0871 69.1015 20.9187 69.0811 21.3523C69.0607 21.8369 69.3004 23.4743 69.433 24.0099C69.4891 24.2445 69.4891 24.3057 69.5452 24.4791L69.6983 24.9178C70.0706 26.0553 70.8868 27.3968 71.7641 28.2487C72.7639 29.228 72.9424 29.4372 74.1156 30.1666L74.4523 30.3502C75.3245 30.7787 76.0897 31.095 77.0639 31.2786L78.1555 31.4112C79.9102 31.4112 80.8284 31.4265 82.328 30.9011L83.9603 30.1564C84.0674 30.0952 84.2 30.0187 84.3225 29.9371C85.4549 29.1668 85.6589 28.9322 86.5566 27.963C87.0004 27.4836 87.23 27.1316 87.587 26.5603C87.8625 26.1216 88.1175 25.5554 88.347 24.9688L88.7245 23.5457C88.7704 23.26 88.8214 23.3927 88.8265 23.005C88.8265 22.0103 88.9489 22.7244 88.954 21.4237L88.6888 19.1334C88.3572 17.5471 87.3626 16.0525 87.3575 16.0474L87.3473 16.0423ZM86.5617 23.3672C86.2659 24.6475 86.22 25.178 85.4804 26.4991L85.1947 27.0041C85.1488 27.0806 85.1284 27.0959 85.0876 27.1571C84.4755 28.0804 83.9144 28.6925 83.0931 29.3658C82.578 29.7891 82.0322 30.0799 81.4252 30.3298C80.7876 30.59 79.8898 30.8144 79.191 30.8042C78.6197 30.794 78.7115 30.8552 78.181 30.7328C77.9617 30.6818 77.8954 30.7124 77.7015 30.6767L76.3396 30.2176C76.2835 30.1921 76.1764 30.1309 76.1662 30.1309L75.1868 29.529C74.8093 29.2485 73.8453 28.3864 73.5443 27.963C73.4576 27.8457 73.4423 27.7845 73.3301 27.6468C72.3354 26.4328 71.9477 25.1065 71.5601 23.6222C71.504 23.3978 71.5397 23.3569 71.5142 23.1376C71.4734 22.7959 71.453 23.0356 71.402 22.7295C71.3305 22.3062 71.3867 21.0565 71.3867 20.5566C71.3867 20.0873 71.4938 20.1281 71.5193 19.6384C71.5754 18.5621 72.3762 16.7309 72.9781 15.8179L73.8912 14.6192C74.6767 13.7928 75.5592 13.0277 76.6508 12.6502L77.4414 12.4003C77.6556 12.3595 77.6607 12.4207 77.8699 12.3136C78.1147 12.1911 79.6144 12.2115 79.9765 12.2575L81.2109 12.5839C82.4198 13.0379 83.1238 13.5582 84.0368 14.4916C85.1386 15.624 85.9292 17.0523 86.3322 18.5621C86.4444 18.9906 86.7403 20.8371 86.7403 21.4084L86.5566 23.3569L86.5617 23.3672Z" fill="#00A4A4"></path><path fill-rule="evenodd" clip-rule="evenodd" d="M141.733 18.3632C141.733 18.5366 141.717 18.3275 141.733 18.3632Z" fill="#00A4A4"></path><path fill-rule="evenodd" clip-rule="evenodd" d="M148.226 28.7231C148.19 28.5496 148.226 28.4068 148.19 28.2232C148.145 27.9834 148.185 28.2385 148.134 28.0293C148.104 27.912 148.114 27.9324 148.099 27.81C148.068 27.6009 148.027 27.5039 147.992 27.3866C147.905 27.1061 147.844 26.8357 147.762 26.6062C147.18 24.9637 146.094 23.4488 144.849 22.3011L143.686 21.4237C142.228 20.5158 140.616 19.8322 138.927 19.5466C138.672 19.5007 138.81 19.5007 138.519 19.4344C136.948 19.0926 135.5 18.1234 135.454 16.333C135.443 15.9658 135.454 15.6393 135.454 15.2721C135.454 14.7518 135.479 14.8385 135.586 14.4253C135.668 14.1091 135.755 13.9662 135.887 13.6908L136.004 13.4766C136.004 13.4766 136.025 13.4511 136.03 13.4357L136.28 13.0889C137.213 11.9412 138.907 12.0636 140.075 12.7777C140.682 13.1501 141.228 13.7061 141.575 14.3029C141.83 14.7416 142.085 15.2721 142.095 15.7975C142.151 18.1388 141.707 17.8225 141.728 18.3071C141.728 18.3275 141.728 18.3377 141.728 18.353C141.728 18.3581 141.738 18.3785 141.748 18.4193L142.115 18.5621C142.426 18.1336 142.518 17.496 142.574 16.9962C142.6 16.7717 142.676 16.6697 142.682 16.3994C142.692 15.6597 142.472 14.7722 142.115 14.155C141.748 13.5174 141.243 12.89 140.677 12.5023L140.483 12.3595C139.998 12.0126 139.56 11.8545 138.912 11.7576C138.295 11.6657 138.631 11.6096 137.657 11.63C137.412 11.6351 137.234 11.7066 137.106 11.7372C136.209 11.9463 135.382 12.2676 134.76 12.9461C134.306 13.4408 133.883 14.0172 133.653 14.66C133.327 15.5577 133.357 16.2769 133.367 17.2512C133.383 18.2153 134.092 19.3732 134.852 19.9394C135.158 20.1689 135.392 20.3423 135.698 20.5311C136.214 20.8473 137.035 21.1993 137.683 21.3625C139.524 21.8267 141.131 22.0256 142.763 23.2447C142.906 23.3518 143.069 23.459 143.181 23.5559C143.824 24.1068 144.462 24.7801 144.829 25.4432C145.12 25.9635 145.314 26.3256 145.513 26.8765L145.691 27.4223C145.849 27.9732 145.936 28.5904 146.007 29.1515C146.043 29.4372 146.114 29.4423 146.125 29.784C146.135 30.238 146.12 30.7124 146.125 31.1715C146.125 31.6816 146.028 31.9723 146.002 32.4875C145.972 33.0792 145.783 33.8188 145.604 34.3544C145.329 35.1808 144.957 36.0071 144.554 36.7263C144.38 37.0273 144.232 37.2874 144.013 37.568L143.589 38.1291C142.906 38.9554 142.08 39.7154 141.156 40.2918C140.539 40.6795 139.856 40.9957 139.213 41.1692L138.055 41.4344C136.336 41.5772 134.729 41.3936 133.168 40.7815C132.138 40.3785 131.317 39.9399 130.496 39.241L129.027 37.8842C128.751 37.6088 128.68 37.4404 128.404 37.1242C127.348 35.9306 126.435 33.7168 126.364 32.1559C126.349 31.7836 126.272 31.8601 126.241 31.4979C126.226 31.2837 126.226 30.9929 126.252 30.7787C127.017 30.3247 127.41 30.3196 128.435 29.5239C128.97 29.1107 129.674 28.3558 130.154 27.8967L130.174 30.7736C130.557 30.7889 130.929 30.7838 131.301 30.7838L132.368 30.7073C132.561 30.3757 132.48 22.806 132.459 21.7298L131.965 18.2867C131.965 18.2867 131.939 18.2102 131.934 18.1898C131.715 17.5164 131.414 16.9094 131.067 16.2922C131.062 16.282 131.052 16.2616 131.041 16.2514C130.669 15.5985 129.878 14.5936 129.312 14.1703C128.777 13.7673 128.527 13.349 127.71 12.8849C127.573 12.8083 127.455 12.7522 127.359 12.6961L126.624 12.3289C126.537 12.2881 126.359 12.1962 126.231 12.1452L124.9 11.7474C123.936 11.528 123.37 11.5178 122.329 11.5178C121.37 11.5178 120.656 11.5841 119.804 11.7984C118.32 12.1656 116.881 13.0328 115.79 14.0938C115.514 14.359 114.958 14.8436 114.647 15.2517L113.882 16.3841C113.489 17.0166 113.219 17.6797 112.994 18.3887L112.811 19.0722C112.678 19.5721 112.648 20.021 112.627 20.5566C112.597 21.2707 112.382 21.1126 112.602 22.1021C112.658 22.347 112.602 22.9897 112.877 24.0966C113.091 24.9637 113.428 25.8156 113.933 26.5756C113.943 26.5858 113.953 26.6011 113.959 26.6164L114.805 27.81C114.994 28.0701 115.188 28.2436 115.371 28.4221C116.244 29.2944 117.177 30.0085 118.304 30.5441C118.442 30.6104 118.549 30.6512 118.718 30.7226C118.968 30.8246 119.223 30.9368 119.544 31.0184L121.421 31.4112C121.88 31.4418 123.278 31.4571 123.706 31.4061C124.186 31.3449 125.262 31.0491 125.634 31.0338C125.645 33.7984 126.701 36.4968 128.593 38.3943C129.384 39.1849 129.812 39.5879 130.654 40.2102C131.291 40.6744 132.051 41.0672 132.796 41.3375L134.535 41.8425C134.688 41.8884 135.219 41.9037 135.346 41.9904H138.611L140.305 41.6283L142.008 40.96C143.564 40.1898 145.033 39.0319 146.048 37.6394C146.41 37.1395 146.778 36.6651 147.078 36.1091C147.211 35.8643 147.313 35.6449 147.42 35.395L148.114 33.2475C148.155 33.069 148.129 33.2475 148.17 33.0537C148.211 32.8599 148.19 32.8089 148.206 32.6252C148.267 32.0233 148.333 32.5436 148.333 31.1715C148.333 30.5747 148.384 29.6871 148.333 29.126C148.298 28.7792 148.272 28.973 148.221 28.718L148.226 28.7231ZM124.777 30.391C124.777 30.391 124.747 30.4012 124.732 30.4114C123.905 30.7175 123.155 30.794 122.283 30.8042L121.248 30.6869C121.028 30.6614 121.054 30.6308 120.789 30.5645L120.197 30.3808C118.866 29.8861 117.733 28.9169 116.886 27.7794C116.029 26.6368 115.397 25.4687 115.086 23.9282C115.025 23.612 115.009 23.7344 114.969 23.5202C114.933 23.3212 114.969 23.1835 114.923 22.9693C114.754 22.2296 114.795 21.0718 114.841 20.3015C114.866 19.9394 114.902 20.1587 114.943 19.8373L115.096 18.8682C115.127 18.6947 115.152 18.6794 115.213 18.4601L115.82 16.8227C115.851 16.7615 115.856 16.7462 115.882 16.6901C116.346 15.726 117.652 14.0989 118.442 13.5327C120.304 12.2166 122.043 11.7831 124.303 12.3901C125.461 12.7012 126.267 13.2317 127.119 14.0377C128.465 15.3129 129.185 16.5779 129.761 18.3071L129.838 18.6284C129.883 18.8274 129.883 18.7866 129.934 19.0467C129.991 19.3375 130.021 19.3068 130.052 19.516C130.174 20.378 130.179 21.2503 130.174 22.148C130.174 22.6734 130.077 22.7142 130.062 23.1325C130.036 23.8517 129.623 25.1422 129.327 25.7595C129.083 26.2746 128.858 26.7235 128.542 27.203C128.17 27.7743 126.92 29.3403 126.364 29.4525C126.364 28.9067 126.507 28.1773 126.67 27.6876L126.706 27.5907C126.803 27.2999 127.103 26.5144 127.098 26.3001C126.905 26.1624 126.879 26.1216 126.598 26.1165C126.099 26.6419 125.685 28.9373 125.655 29.7279C125.64 30.1156 125.303 30.1819 124.772 30.391H124.777Z" fill="#00A4A4"></path><path fill-rule="evenodd" clip-rule="evenodd" d="M106.425 9.49273C106.006 8.09509 105.869 8.05428 105.292 7.14633C104.935 6.58523 104.15 5.69258 103.645 5.31001C102.497 4.43777 101.905 3.94298 100.518 3.38699L100.38 3.33088C100.38 3.33088 100.349 3.31557 100.334 3.31047C99.3089 2.8871 98.707 2.8973 97.9877 2.68817C97.5899 2.57085 97.192 2.68307 96.8451 2.59125C96.1616 2.40762 91.9075 2.49433 90.9842 2.49433C90.5456 2.49433 90.5507 2.53514 90.5507 2.95341V30.748C90.9077 30.8603 92.3105 30.8093 92.7491 30.7889V21.1686L97.0747 21.1533C97.4062 21.1023 97.1869 21.0411 97.6001 21.036C98.151 21.036 98.5539 20.9187 99.0079 20.8116C99.773 20.6279 100.482 20.4035 101.166 20.0668C102.221 19.5465 103.043 18.9854 103.869 18.1795C104.221 17.8377 104.93 17.0777 105.195 16.6748L105.43 16.3126C105.573 16.1035 105.746 15.7872 105.863 15.5577L106.287 14.5324C106.608 13.6091 106.828 12.0687 106.746 11.0638L106.43 9.49273H106.425ZM104.246 13.6652L103.41 15.9249C102.987 16.7666 101.793 18.0928 101.079 18.659C100.936 18.7712 100.854 18.8018 100.696 18.9242C99.8087 19.6231 98.8906 19.8985 97.8245 20.1995L96.4881 20.4188H92.7491L92.7695 3.23396C93.3867 3.23396 96.0545 3.17275 96.5238 3.30027C96.7839 3.36658 97.4164 3.35128 98.1561 3.56552C99.0691 3.83076 99.1456 3.85627 99.9822 4.30514L101.094 5.03457C101.533 5.36612 102.058 5.93742 102.39 6.29958L103.339 7.5901C104.19 9.16117 104.41 10.1762 104.41 11.8493C104.41 12.237 104.359 13.2674 104.241 13.6601L104.246 13.6652Z" fill="#00A4A4"></path><path fill-rule="evenodd" clip-rule="evenodd" d="M60.2413 9.53356C59.6904 7.73296 58.5835 6.2282 57.1502 5.0499L56.0331 4.26437C55.88 4.16235 55.9514 4.19805 55.7882 4.10624L54.7935 3.60125C54.6456 3.52984 54.4569 3.43803 54.258 3.36151L52.5339 2.83612C51.7126 2.62189 51.1056 2.66779 50.7894 2.62189C50.5496 2.58618 50.7078 2.58108 50.4935 2.53517C49.9885 2.42295 45.1427 2.45356 44.449 2.51987C44.3266 3.01975 44.4082 15.7362 44.4082 16.6085C44.4082 21.3064 44.3113 26.1114 44.4133 30.7991H46.5913L46.6118 21.184C47.7033 21.0717 50.5088 21.2758 51.0648 21.1074C51.3862 21.0105 51.3556 21.0462 51.7075 21.036C52.2176 21.0207 53.4775 20.6484 54.0743 20.4392C55.5587 19.924 57.2471 18.7916 58.2315 17.6439L58.8998 16.8074C59.568 15.828 60.1138 14.8946 60.3484 13.6347C60.5575 12.4972 60.4402 13.3847 60.4759 12.2523C60.4912 11.8596 60.5473 11.9361 60.5014 11.579C60.3892 10.7119 60.5677 10.5996 60.2413 9.53356ZM57.2216 15.9046C56.4105 17.5521 54.2937 19.4344 52.442 19.9801C52.289 20.0261 52.0034 20.123 51.9371 20.1383C50.6822 20.4596 48.04 20.5463 46.6118 20.3984L46.6271 3.24929C47.3769 3.18298 48.3716 3.23399 49.1469 3.23399C50.2895 3.23399 50.0803 3.3105 50.9832 3.34111C51.3097 3.35131 52.1768 3.62166 52.488 3.72367C53.5999 4.08584 54.7986 4.84076 55.6097 5.662C55.7372 5.78953 55.8137 5.87114 55.9361 5.99866C56.992 7.08515 57.5378 8.18693 57.9663 9.61518C58.1142 10.1049 58.2672 11.3036 58.2672 11.8494C58.2672 13.2776 57.8337 14.6446 57.2165 15.8994L57.2216 15.9046Z" fill="#00A4A4"></path><path fill-rule="evenodd" clip-rule="evenodd" d="M176.709 25.0453C176.577 25.2749 176.648 25.1371 176.567 25.3667C176.531 25.4687 176.551 25.4228 176.511 25.5095L176.118 26.3205C175.46 27.5958 174.669 28.4068 173.598 29.3096L173.052 29.682C172.828 29.8248 172.685 29.886 172.44 30.0034C171.517 30.4522 170.537 30.7073 169.487 30.6971L167.941 30.4318C166.222 29.9881 164.758 28.6618 163.779 27.2387C163.003 26.1063 162.325 24.7138 162.203 23.2702C162.172 22.9285 162.095 22.9132 162.085 22.4796C162.024 19.6741 162.223 17.6491 163.82 15.3792L164.427 14.6089C164.85 14.0274 165.595 13.3949 166.237 13.0124L166.365 12.941C166.365 12.941 166.396 12.9257 166.406 12.9155C166.62 12.7981 166.804 12.7063 167.023 12.5992L169.17 12.0228C169.813 11.9565 170.272 12.0789 170.864 12.1503C171.333 12.2064 171.823 12.4054 172.251 12.5788L173.43 13.2419C174.98 14.4049 175.766 15.5322 176.562 17.2818C176.602 17.3736 176.592 17.3634 176.633 17.445C177.199 17.4807 177.49 17.19 177.99 17.0013C178.607 16.7666 178.566 16.6493 177.638 15.3996C177.225 14.8487 176.623 14.1856 176.092 13.7265L175.495 13.2674C175.388 13.1909 175.302 13.1501 175.184 13.0634C175.057 12.9716 175.026 12.941 174.863 12.8491C174.582 12.691 174.389 12.5635 174.159 12.4411L172.664 11.8392C171.792 11.5841 171.399 11.5892 170.894 11.4464C170.078 11.222 167.701 11.5025 167.008 11.727C165.977 12.0636 164.967 12.4513 164.09 13.0787L163.498 13.5378C163.279 13.7367 163.1 13.8234 162.912 14.0019C162.254 14.614 161.703 15.318 161.223 16.0576C161.152 16.1698 161.182 16.1188 161.126 16.2208L160.346 17.8837C159.897 19.1589 159.565 21.0003 159.861 22.4847C159.897 22.6581 159.877 22.8213 159.892 22.9948C159.933 23.4283 160.065 23.867 160.183 24.2649C160.978 27.0143 163.172 29.3403 165.732 30.4624C166.248 30.6869 166.778 30.8756 167.36 31.0082C167.528 31.049 167.65 31.0388 167.819 31.0797C168.023 31.1358 167.926 31.1562 168.242 31.1664C168.926 31.1868 168.655 31.1919 169.175 31.2735C169.874 31.3806 170.099 31.2225 170.604 31.1664C171.226 31.1001 171.303 31.1817 172.057 30.9827C174.307 30.391 176.444 29.0699 177.776 27.1112C178.02 26.7541 178.515 26.1216 178.53 25.6931L178.143 25.4891C177.735 25.331 177.148 25.0045 176.715 25.0351L176.709 25.0453Z" fill="#00A4A4"></path><path fill-rule="evenodd" clip-rule="evenodd" d="M109.057 2.4944C108.587 2.4944 108.587 2.4842 108.587 2.95348L108.613 30.7736L110.786 30.7991L110.77 2.50971L109.062 2.4944H109.057Z" fill="#00A4A4"></path><path fill-rule="evenodd" clip-rule="evenodd" d="M153.256 7.49326C153.225 7.03928 152.888 7.20251 151.486 7.20251C151.154 7.20251 151.052 7.1464 151.052 7.50346V12.1504L149.496 12.1606L149.471 12.737L151.052 12.7625V30.7583C151.613 30.845 152.649 30.8093 153.245 30.7838L153.256 12.7625H154.674L154.704 12.1504H153.251L153.256 7.49836V7.49326Z" fill="#00A4A4"></path><path fill-rule="evenodd" clip-rule="evenodd" d="M66.3675 11.6453C65.9492 11.6453 65.7503 11.7014 65.4289 11.8289C65.3371 11.8646 65.1637 11.9564 65.082 12.0023C64.8882 12.1094 64.8984 12.1094 64.7352 12.2625C64.4087 12.0839 64.1741 12.1502 63.6895 12.1502C63.3018 12.1502 62.8683 12.1298 62.4857 12.1605C62.399 12.7522 62.4092 29.1719 62.4602 30.7735L64.6485 30.7939C64.7199 29.2943 64.6536 27.6569 64.6536 26.1674C64.6536 22.1837 64.5975 17.8377 64.6536 13.8998C64.6587 13.4765 64.8831 12.9205 65.2759 12.7062C65.2759 12.9715 65.2555 13.2112 65.3269 13.4561L65.5003 13.8641C65.7605 14.2671 66.2195 14.2416 66.7041 14.2416C67.5968 14.2416 67.9742 13.9662 67.9793 13.048C67.9895 11.6453 67.2601 11.6453 66.3777 11.6453H66.3675Z" fill="#00A4A4"></path><path fill-rule="evenodd" clip-rule="evenodd" d="M156.265 12.1503C155.791 12.1503 155.832 12.0993 155.832 12.5839V30.7532C156.444 30.8654 157.372 30.7991 158.035 30.794V30.5186C158.056 28.6058 158.081 12.8084 158.015 12.1503H156.27H156.265Z" fill="#00A4A4"></path><path fill-rule="evenodd" clip-rule="evenodd" d="M157.357 7.99306C157.137 7.91654 156.872 7.82983 156.571 7.95225C156.214 8.10017 156.087 8.08487 155.903 8.52865C155.893 8.54905 155.872 8.60006 155.867 8.62046C155.832 8.74288 155.842 8.68677 155.832 8.8347C155.801 9.27848 155.811 9.45701 155.964 9.73755L156.296 10.064C156.847 10.3089 156.979 10.2221 157.234 10.1456C158.04 9.90588 158.122 9.63554 158.04 8.69188C157.999 8.2226 157.648 8.08487 157.362 7.98285L157.357 7.99306Z" fill="#00A4A4"></path><path fill-rule="evenodd" clip-rule="evenodd" d="M39.0982 21.2451C38.9656 20.6636 39.0166 20.3168 38.9146 19.8016C38.8585 19.5363 38.9197 19.368 38.8432 19.1028L38.4096 17.093C38.0219 15.4403 37.42 13.8591 36.6243 12.3645C36.0224 11.2372 35.3746 10.1609 34.6146 9.14586L34.0586 8.41133C33.6199 7.80433 33.0588 7.24324 32.5436 6.69744L31.3092 5.48343C31.146 5.32531 31.0082 5.20799 30.8756 5.07537L30.0136 4.33064C29.5851 3.99398 29.1209 3.60121 28.6261 3.33597C28.264 3.14214 27.8967 2.9279 27.4784 2.84628C26.8153 2.71876 26.7286 3.28496 26.8816 3.71853C27.0449 4.18271 27.2999 4.52957 27.5754 4.95294L30.442 9.82938C31.1868 11.3902 32.36 14.3028 32.4773 16.0116C32.5079 16.4452 32.5997 16.2667 32.6048 16.7207C32.6048 17.2613 32.717 17.3328 32.717 17.8785C32.717 18.8681 32.8395 20.2045 32.6303 21.138C32.5793 21.3726 32.6303 21.592 32.5946 21.8164C32.5487 22.097 32.5028 21.9388 32.4773 22.3367C32.4059 23.3518 31.7887 25.1728 31.3755 26.0348C30.8501 27.1315 30.0187 28.3965 28.8149 28.825C28.1518 29.0597 27.3662 28.927 26.9429 28.2996C25.8921 26.7388 26.9428 24.6423 26.04 23.1375C25.8207 22.7703 25.5299 22.6734 25.1014 22.6734C24.6118 22.6734 24.2649 23.0661 24.0354 23.3314L23.8517 23.5966C23.561 24.0506 23.3416 24.5148 23.1631 25.0453C23.107 25.2136 23.107 25.2187 23.056 25.3768C23.0356 25.4482 23.0254 25.4686 23.005 25.5248C22.5102 26.9479 22.1531 28.5343 21.9389 30.0084L21.8267 30.7276C21.7961 31.1051 21.7094 31.0439 21.7094 31.4979C21.7145 32.4517 21.49 33.5433 21.5869 34.538C21.6226 34.8951 21.7094 34.9767 21.7094 35.3082C21.7094 35.8693 21.8573 36.41 22.0358 36.9558C22.5153 38.4095 23.3671 39.7817 24.9076 40.2714C26.5042 40.7815 28.3099 40.2561 29.6871 39.5062L31.1103 38.6034C31.7887 38.1239 32.513 37.6342 33.1149 37.068C33.2883 36.9048 33.4873 36.7008 33.7168 36.512C34.0943 36.206 35.1655 35.1042 35.446 34.6961L36.1907 33.6963C36.2876 33.5586 36.354 33.4821 36.4305 33.3597L37.4966 31.4571C37.5629 31.3193 37.6088 31.2122 37.67 31.049C38.0015 30.1665 38.3382 29.2943 38.532 28.3608C38.583 28.1262 38.6953 27.6722 38.7412 27.4172C38.8432 26.8051 38.9911 25.6829 38.9911 25.0555C38.9911 24.6117 39.1033 24.7494 39.1186 24.2852C39.139 23.6578 39.1951 21.7042 39.0931 21.2604L39.0982 21.2451Z" fill="#00A4A4"></path><path fill-rule="evenodd" clip-rule="evenodd" d="M14.4712 34.1248C14.4304 33.9259 14.461 33.6963 14.4406 33.4923C14.3539 32.5639 13.5479 29.3402 13.2572 28.4985C13.2368 28.4373 13.2317 28.4118 13.2113 28.3506C13.1807 28.2639 13.1705 28.2231 13.1195 28.1211C13.0532 27.9833 13.0685 28.0191 13.0123 27.9068L12.946 27.7793C12.946 27.7793 12.9307 27.7487 12.9256 27.7385C12.7369 27.3814 12.6349 27.1876 12.3339 26.8969C11.6606 26.244 11.0485 26.4837 10.7374 27.1876C10.1865 28.4271 11.0842 30.5083 9.90591 31.5795C9.37032 32.064 8.56439 31.8702 7.96248 31.457C6.93721 30.7582 6.2945 29.2841 5.96804 28.1568C5.75891 27.4325 5.58548 26.7183 5.49876 25.9379C5.46306 25.5961 5.40185 25.7288 5.37634 25.4176C5.34064 24.9891 5.37634 24.6117 5.27433 24.2189C5.1162 23.5915 5.36614 22.8264 5.37634 22.3928C5.40185 21.3012 5.45286 21.6889 5.49876 21.1635C5.56507 20.3422 5.78441 19.5108 6.01395 18.7355L6.58015 17.093C6.58015 17.093 6.59545 17.0624 6.60055 17.0471L8.41136 13.3745L9.96202 10.9209C10.1865 10.5537 10.2426 10.3649 10.212 9.80385C10.0895 9.70183 10.2732 9.82425 10.0946 9.71203C9.92122 9.60491 9.8294 9.57941 9.63557 9.62022C9.42643 9.66612 9.65087 9.61512 9.48764 9.67122C8.0492 10.1813 6.52914 11.7881 5.48346 12.8338L4.00931 14.5885C3.32579 15.578 2.67288 16.5268 2.12199 17.6082C1.95366 17.9397 1.78533 18.3121 1.617 18.7049C0.994696 20.1382 0.561122 21.6073 0.290776 23.1426L0.183657 23.8669C0.14285 24.1526 0.0663374 24.2852 0.0714383 24.5811C0.0714383 24.8208 0.122447 25.1677 0.00512695 25.336V28.1925C0.00512695 28.1925 0.0204296 28.2129 0.0255304 28.2384L0.300977 30.5338C0.402995 31.2887 0.561122 31.9875 0.795762 32.7119C1.19363 33.9565 1.81083 35.1705 2.56576 36.2213C3.29009 37.2261 4.49389 38.6085 5.49366 39.292C5.65689 39.4042 5.54467 39.3124 5.67219 39.4348C6.51894 40.2152 7.80946 41.0161 8.83983 41.4292C8.85514 41.4343 8.87044 41.4445 8.88574 41.4496C10.3089 42.0107 11.7167 41.9087 12.9103 40.9804C13.094 40.8375 13.0889 40.8477 13.2368 40.659L13.65 40.1132C13.854 39.7868 14.1039 39.2716 14.1906 38.9094C14.1906 38.889 14.2059 38.8227 14.211 38.8023L14.4508 37.8229C14.4916 37.323 14.5732 37.2363 14.5732 36.6599C14.5732 36.206 14.5732 35.7571 14.5732 35.3031L14.4763 34.1299L14.4712 34.1248Z" fill="#00A4A4"></path><path fill-rule="evenodd" clip-rule="evenodd" d="M21.6736 23.0202C22.0103 22.0409 21.9031 21.5461 21.9694 21.2553C22.1327 20.5157 22.1123 19.7149 22.0715 18.9038L21.8419 17.7204C21.4032 16.1596 21.2247 16.5829 20.8013 15.2108C20.4239 14.0019 20.3321 12.9052 20.3729 11.6096C20.3882 11.1658 20.8575 10.5129 21.1788 9.89059C21.3726 9.51312 21.4951 9.23257 21.7501 8.84491C22.0817 8.33992 22.4132 8.43174 22.9131 8.70718C24.9381 9.82938 24.7392 7.42177 23.1171 6.37099L20.9442 5.06516C20.4443 4.80502 20.5718 4.94274 20.4647 4.703C20.23 4.16231 20.4494 3.88176 20.6636 3.42268C20.8013 3.12173 20.985 2.44332 20.9799 2.06585C20.9799 1.33133 21.0666 0.693718 20.3474 0.229539C20.1229 0.0816139 19.9189 0.076513 19.7404 0H18.9344C18.7712 0.0867148 17.9755 0.0561096 17.6541 0.99977C17.5827 1.20891 17.6235 1.13239 17.5878 1.34153C17.5419 1.59147 17.547 1.46395 17.5062 1.63738C17.4603 1.84651 17.649 2.76467 17.7204 2.933C17.9143 3.38698 18.1489 3.46859 18.3784 3.88176C18.5927 4.26943 18.6845 4.63159 18.3784 5.02946C18.2713 5.17228 18.1183 5.2845 17.9092 5.33551L15.221 5.72828C15.0221 5.72828 13.4918 5.96292 13.2776 6.18225C12.9919 6.473 13.298 7.31465 13.3745 7.40136C13.553 7.59519 14.1294 7.72272 14.4253 7.90125C15.0119 8.25831 15.272 8.72249 15.2924 9.42641C15.3077 9.89059 15.3179 9.78347 15.3944 10.0946C15.4556 10.3395 15.3944 10.5639 15.4505 10.8138L15.6597 12.1962C15.6699 12.7522 16.0014 13.7366 15.8535 14.3691C15.6036 15.4352 15.6801 15.5526 15.2465 16.8686C14.8282 18.1336 14.869 17.8428 14.6803 19.0262C14.6395 19.2762 14.6293 19.0875 14.5783 19.368C14.461 20.0107 14.5885 21.8368 14.7415 22.352L15.8484 26.7388L16.0218 30.5236C16.0218 31.1306 16.1289 31.4265 16.1289 31.9416C16.1289 32.8343 16.0575 35.0022 16.2259 35.7724C16.3126 36.1856 16.1596 36.3386 16.3432 36.5018C16.5829 36.6753 18.1336 36.5732 18.557 36.5579C18.9548 36.1448 19.2864 34.8185 19.4343 34.2319C19.5465 33.7984 19.6128 33.2679 19.7149 32.8853C19.822 32.4874 19.8067 31.7376 19.8985 31.3959C19.9852 31.0643 19.9954 31.1459 19.9954 30.7174C19.9954 30.2431 20.077 30.3757 20.1178 30.0135C20.1841 29.4116 20.026 29.8299 20.2096 28.9525C20.2454 28.7791 20.2198 28.6924 20.2351 28.5292C20.2658 28.2231 20.327 28.2996 20.3627 27.8865L21.6073 23.1886C21.6073 23.1886 21.6583 23.0355 21.6583 23.0304L21.6736 23.0202Z" fill="#00A4A4"></path><path d="M45.7242 32.2936V36.3896H50.463V32.2936H51.7433V42.0873H50.463V37.4965H45.7242V42.0873H44.4592V32.2936H45.7242Z" fill="#00A4A4"></path><path d="M60.8381 38.5167C60.8381 41.1181 59.0375 42.2505 57.3338 42.2505C55.4312 42.2505 53.9622 40.858 53.9622 38.634C53.9622 36.2774 55.5026 34.9001 57.4512 34.9001C59.3997 34.9001 60.8381 36.3692 60.8381 38.5167ZM55.2578 38.5881C55.2578 40.1285 56.1453 41.2915 57.395 41.2915C58.6448 41.2915 59.5323 40.1438 59.5323 38.5575C59.5323 37.3639 58.9355 35.854 57.4256 35.854C55.9158 35.854 55.2629 37.2465 55.2629 38.5881H55.2578Z" fill="#00A4A4"></path><path d="M62.8631 40.7814C63.2406 41.0263 63.9088 41.2915 64.5464 41.2915C65.4747 41.2915 65.9134 40.8273 65.9134 40.2458C65.9134 39.6337 65.5513 39.3022 64.6076 38.9502C63.3426 38.5013 62.7458 37.8025 62.7458 36.9609C62.7458 35.8285 63.6588 34.895 65.1738 34.895C65.8879 34.895 66.5102 35.0991 66.903 35.3286L66.5816 36.257C66.3062 36.0835 65.7961 35.8489 65.1432 35.8489C64.3883 35.8489 63.9649 36.2825 63.9649 36.8078C63.9649 37.3893 64.3883 37.6495 65.3013 38.0014C66.5204 38.4656 67.1478 39.0777 67.1478 40.1234C67.1478 41.3578 66.1889 42.2301 64.5158 42.2301C63.7456 42.2301 63.0314 42.0413 62.5417 41.7506L62.8631 40.7763V40.7814Z" fill="#00A4A4"></path><path d="M69.3719 37.3536C69.3719 36.4508 69.3413 35.7265 69.3158 35.0582H70.4635L70.5196 36.262H70.5502C71.0756 35.4051 71.9019 34.895 73.0496 34.895C74.7482 34.895 76.0285 36.3335 76.0285 38.4707C76.0285 41.0008 74.4881 42.2505 72.8303 42.2505C71.9019 42.2505 71.0858 41.8424 70.6675 41.1436H70.6369V44.9641H69.3719V37.3485V37.3536ZM70.6369 39.2257C70.6369 39.4144 70.6675 39.5878 70.693 39.751C70.9277 40.6386 71.6979 41.2456 72.611 41.2456C73.9627 41.2456 74.7482 40.1387 74.7482 38.5268C74.7482 37.119 74.0086 35.9101 72.6569 35.9101C71.7846 35.9101 70.9736 36.5375 70.7236 37.4914C70.6777 37.6495 70.6369 37.8382 70.6369 38.0167V39.2206V39.2257Z" fill="#00A4A4"></path><path d="M78.2269 42.0923V35.0582H79.5072V42.0923H78.2269Z" fill="#00A4A4"></path><path d="M83.7462 33.0383V35.0583H85.5774V36.0325H83.7462V39.8276C83.7462 40.6998 83.991 41.1946 84.7051 41.1946C85.0418 41.1946 85.2866 41.1487 85.4448 41.1079L85.5009 42.0669C85.256 42.1689 84.8633 42.2403 84.3685 42.2403C83.7717 42.2403 83.2922 42.0516 82.9862 41.7047C82.624 41.3272 82.4914 40.6998 82.4914 39.8735V36.0376H81.3998V35.0634H82.4914V33.3801L83.7411 33.0434L83.7462 33.0383Z" fill="#00A4A4"></path><path d="M91.4943 42.0924L91.3923 41.2048H91.3464C90.9536 41.7557 90.1987 42.2505 89.1938 42.2505C87.7707 42.2505 87.0413 41.2456 87.0413 40.2306C87.0413 38.532 88.5511 37.5985 91.2699 37.6138V37.471C91.2699 36.8895 91.1118 35.8438 89.6733 35.8438C89.0204 35.8438 88.3369 36.0478 87.8421 36.3692L87.5513 35.5276C88.1328 35.1501 88.9745 34.9001 89.862 34.9001C92.0146 34.9001 92.5349 36.3692 92.5349 37.777V40.4091C92.5349 41.0212 92.5655 41.6129 92.6522 42.0924H91.4892H91.4943ZM91.3056 38.5014C89.913 38.4708 88.3267 38.7207 88.3267 40.0877C88.3267 40.9141 88.8776 41.3068 89.5305 41.3068C90.4435 41.3068 91.025 40.7253 91.2291 40.1285C91.275 39.9959 91.3005 39.8531 91.3005 39.7205V38.5014H91.3056Z" fill="#00A4A4"></path><path d="M95.1874 31.7733H96.4677V42.0924H95.1874V31.7733Z" fill="#00A4A4"></path><path d="M102.905 32.4262C103.675 32.3089 104.588 32.2222 105.593 32.2222C107.409 32.2222 108.705 32.6455 109.562 33.4413C110.434 34.2421 110.944 35.3745 110.944 36.9558C110.944 38.537 110.449 39.8633 109.536 40.761C108.623 41.6741 107.108 42.1689 105.206 42.1689C104.303 42.1689 103.548 42.123 102.91 42.0515V32.416L102.905 32.4262ZM104.17 41.0875C104.491 41.1436 104.956 41.1589 105.45 41.1589C108.154 41.1589 109.623 39.649 109.623 37.0017C109.638 34.691 108.327 33.2219 105.654 33.2219C105.001 33.2219 104.507 33.278 104.17 33.3546V41.0875Z" fill="#00A4A4"></path><path d="M113.122 42.0923V35.0582H114.402V42.0923H113.122Z" fill="#00A4A4"></path><path d="M121.003 42.0924L120.901 41.2048H120.86C120.467 41.7557 119.712 42.2505 118.707 42.2505C117.284 42.2505 116.555 41.2456 116.555 40.2306C116.555 38.532 118.065 37.5985 120.784 37.6138V37.471C120.784 36.8895 120.625 35.8438 119.187 35.8438C118.534 35.8438 117.851 36.0478 117.356 36.3692L117.065 35.5276C117.647 35.1501 118.488 34.9001 119.376 34.9001C121.528 34.9001 122.049 36.3692 122.049 37.777V40.4091C122.049 41.0212 122.079 41.6129 122.166 42.0924H121.003ZM120.814 38.5014C119.422 38.4708 117.835 38.7207 117.835 40.0877C117.835 40.9141 118.386 41.3068 119.039 41.3068C119.952 41.3068 120.534 40.7253 120.738 40.1285C120.778 39.9959 120.809 39.8531 120.809 39.7205V38.5014H120.814Z" fill="#00A4A4"></path></g><defs><clipPath id="clip0_4036_11"><rect width="200" height="44.9693" fill="white"></rect></clipPath></defs></svg>